#!OML:ASF E:/inclinewalkrobotboard/Project1/Captureday1/Session1/subject1.ASF
:FULLY-SPECIFIED
:DEGREES
38
root 0 0 0 4.112328622474012 16.76090937644709 -1.2060843970504476
lowerback 10.946678274172825 1.3923750419163061 -2.217359288548708
upperback 3.9383177522012645 1.5465616277291088 -0.7728070604036076
thorax -1.969693361270277 0.758841889299876 0.22571141094260347
lowerneck -3.003270842272321 -2.3371989300775113 -6.057681552618869
upperneck 24.56712182985379 -3.41787563576273 4.624523228873921
head 8.552293956775882 -1.6838012942282152 2.32933781022654
rclavicle -7.748245117454149E-17 5.376820225475247E-16
rhumerus 14.561917407587934 21.880888142319247 -70.91465657436395
rradius 93.89170490061684
rwrist -12.694327376980496
rhand -36.63424972055254 -17.361840384278345
rfingers 7.125019999999964
rthumb -9.70264456481805 -46.84663747615436
lclavicle 1.1992874834599683E-15 -6.034992696394479E-16
lhumerus 14.384766962120569 -5.378403975778713 60.1810751268634
lradius 76.11079650590514
lwrist 21.27818098266266
lhand -24.649468236518842 32.11744354046793
lfingers 7.121269021071583
lthumb 1.7751910749834536 55.775486373511804
rfemur -30.306244814910063 10.928122093395276 7.061338643461916
rtibia 46.3441730906443
rfoot -8.302221777374164 -9.04527792599303
rtoes -7.331495492169683
lfemur -16.471626177159596 -6.16555929278441 -11.102574515321278
ltibia 33.884459329737055
lfoot -6.523410021995415 6.092621880065596
ltoes -3.8776686504077076
39
root 0 0 0 3.755488947941099 15.939300355354 -0.784412248126612
lowerback 10.882313403782582 1.2173452974306878 -2.308930730917637
upperback 3.9315594452023377 1.3132031882836346 -0.6801321809932367
thorax -1.9386501063438581 0.64379786010752 0.3976928694517441
lowerneck -2.995563160872825 -2.1175069543133844 -5.996018054351899
upperneck 24.838627623526875 -3.1162786302035617 4.380901203863185
head 8.599374445849364 -1.5542397979248368 2.263438172449036
rclavicle 2.40102554969337E-16 4.754071337934943E-16
rhumerus 12.002860342403077 26.694197293327722 -73.39226718706635
rradius 97.25408327829254
rwrist -15.52832605294505
rhand -36.85391479821287 -19.18241229851889
rfingers 7.125019999999958
rthumb -9.909837072989966 -48.62731011807546
lclavicle 1.1679068334483475E-15 -6.083571863794255E-16
lhumerus 13.118683343432437 -4.92048856635564 60.6242781184516
lradius 73.74106852497432
lwrist 19.218975899102155
lhand -24.018164174949476 31.55743585709836
lfingers 7.119851315774122
lthumb 2.375374992140344 55.96790721131695
rfemur -29.904907097187227 11.300066156447501 7.117686708084879
rtibia 45.73863349990914
rfoot -8.64034723781447 -8.918608803263073
rtoes -7.56626613677591
lfemur -16.087219388630874 -6.365522233372479 -11.149752072931749
ltibia 33.2694396043159
lfoot -6.595900756208213 6.286247912712946
ltoes -3.7623789299934876
40
root 0 0 0 3.1372127927922864 14.624576467369224 -0.23523713901664495
lowerback 10.667395267775287 0.9821121551562821 -2.4371133506803506
upperback 3.883391213148764 1.0043273310795244 -0.5752330666945709
thorax -1.8669703802406437 0.49160054986160606 0.6130144570437752
lowerneck -2.9889267705804556 -1.8187007459910278 -5.9315600039087615
upperneck 25.17066658179857 -2.712859949415936 4.088137964678678
head 8.652566584928392 -1.3788409491027345 2.186371278320287
rclavicle 3.847326027847699E-16 4.68295629093729E-16
rhumerus 12.02364695722457 28.64590946144755 -74.03075753214043
rradius 100.11057770400842
rwrist -17.64641907638063
rhand -37.625388575524596 -20.637602838118596
rfingers 7.125019999999956
rthumb -10.65051931253271 -50.068095263251806
lclavicle 1.1608784607627953E-15 -6.136709500810355E-16
lhumerus 12.39376018212674 -3.5283248865044534 60.38639250526484
lradius 70.48939121503727
lwrist 16.877771993089624
lhand -23.627088835517192 30.836840649078997
lfingers 7.118485429095545
lthumb 2.738891576113712 56.14562030934721
rfemur -28.785957730346354 11.979040732644153 7.44511144795364
rtibia 44.385464340134085
rfoot -9.394900807901742 -8.797257439523438
rtoes -7.882409117375425
lfemur -15.398702809492596 -6.636557521124616 -11.262363877587994
ltibia 32.282786935120384
lfoot -6.817506706542427 6.6771391847572135
ltoes -3.5405229018785827
41
root 0 0 0 1.6101486859129843 11.462180116665117 0.8276192340607454
lowerback 10.00925478501867 0.48800914354002234 -2.6248135082463055
upperback 3.6622546416883592 0.3737403141819608 -0.34997776189508034
thorax -1.726166098530912 0.18016780094516943 1.0271722858522354
lowerneck -3.219361575607768 -1.1850415749584846 -5.757002628941972
upperneck 25.733120672056828 -1.855144581463967 3.4369321173298437
head 8.754477006515407 -0.9969460606886864 1.996251438479066
rclavicle 4.322401735492675E-16 4.980921195335454E-16
rhumerus 14.378308568837973 28.616050449156493 -73.21785732717098
rradius 103.41955835858583
rwrist -19.80802939089135
rhand -39.14159487401838 -22.228231749826378
rfingers 7.125019999999952
rthumb -12.10744277957368 -51.661129437036195
lclavicle 1.1650961446466257E-15 -6.260244070014648E-16
lhumerus 12.360420348684173 0.19819677705465466 58.77888656142244
lradius 64.2221073365314
lwrist 13.03738538859334
lhand -23.530438586770916 29.509071178340324
lfingers 7.116629545738341
lthumb 2.8029327933092674 56.3819320422021
rfemur -25.173007594838456 13.696101095060968 8.723192375547358
rtibia 40.49171261965558
rfoot -11.53338314777756 -8.66632937050388
rtoes -8.449393707401764
lfemur -14.445084485799068 -6.996279385993861 -11.42303934708234
ltibia 30.9449427372818
lfoot -7.116618956137371 7.216978053969533
ltoes -3.2157628483636946
42
root 0 0 0 0.03438958675962489 7.903121877924946 1.8052173148766846
lowerback 9.385206737433286 0.022922781942255388 -2.73574852812097
upperback 3.4115807243513787 -0.21190225605500257 -0.12027038004103352
thorax -1.6322354265604884 -0.11064656708713805 1.397684509757858
lowerneck -3.6015639477451247 -0.6297390352066334 -5.572058399149548
upperneck 25.978196153128003 -1.1027582614975415 2.8719159689994633
head 8.786758080415751 -0.6558521968566242 1.8184173618137283
rclavicle 4.365282332312527E-16 5.150926911760311E-16
rhumerus 15.88660945270666 28.198635291432584 -72.56908472256461
rradius 104.93850614883229
rwrist -20.757613003509952
rhand -39.9483240676761 -22.95017586998582
rfingers 7.125019999999951
rthumb -12.882593006493058 -52.38705954106217
lclavicle 1.1448722528410818E-15 -6.310188718751042E-16
lhumerus 13.170016860534052 3.171305511775678 57.0728492849929
lradius 60.31409287986557
lwrist 11.030806818761377
lhand -23.866180646143675 28.714488901670308
lfingers 7.115965741694261
lthumb 2.459695591136514 56.48828061047218
rfemur -22.589743381239302 14.735938809601333 9.723378167482851
rtibia 37.98146425333674
rfoot -12.961168067968277 -8.587222363764015
rtoes -8.728726132577057
lfemur -14.017342356934 -7.14714752740537 -11.493848052558846
ltibia 30.340444202202256
lfoot -7.256873557887185 7.492410927431692
ltoes -3.042142427001119
43
root 0 0 0 -1.982507396593871 2.780357213753753 2.9433461960242795
lowerback 8.720710629518889 -0.505119377205753 -2.8208546505193377
upperback 3.116408825483034 -0.8748734748874039 0.14756312381293524
thorax -1.557154801816988 -0.4428033237766402 1.8005595071860359
lowerneck -4.124169402604353 -0.054189426475534486 -5.375614847028464
upperneck 25.75282620207487 -0.33568638379643945 2.367144046910375
head 8.687131807110113 -0.3018514762546505 1.653790842203046
rclavicle 4.3947134965180564E-16 5.324183169258643E-16
rhumerus 16.873103018553774 28.036244397254528 -72.18440605868336
rradius 106.0759207006468
rwrist -21.49688974556478
rhand -40.51368778159595 -23.50501798525867
rfingers 7.12501999999995
rthumb -13.425348921021937 -52.94246722602951
lclavicle 1.129379586822829E-15 -6.453246648476609E-16
lhumerus 14.073757597175266 5.834289767519845 55.45089153064851
lradius 57.05886210407477
lwrist 9.480708523773584
lhand -24.266118043632588 28.060018204790456
lfingers 7.115491176214617
lthumb 2.0563092187707426 56.567865637216485
rfemur -20.718774631162745 15.39487869960122 10.493252703174086
rtibia 36.334825792787
rfoot -13.91869265935418 -8.48812816352
rtoes -8.866851208183412
lfemur -13.67136594064574 -7.218118407132712 -11.56747151112892
ltibia 29.92234290994625
lfoot -7.413424869027259 7.738347387453438
ltoes -2.8884149944610704
44
root 0 0 0 -4.094523829064681 -2.941066377709763 3.918587127458476
lowerback 8.008852772483039 -0.9342562528241749 -2.8441293212925984
upperback 2.803482085236558 -1.4052318096813352 0.3507942283886667
thorax -1.474238860212954 -0.7124457087295029 2.088836142673557
lowerneck -4.646558072440448 0.4396406432151987 -5.2212246175919805
upperneck 25.08851978111619 0.2922504207647232 2.0475768363596973
head 8.47714459783243 -0.0010949590992588298 1.5485530859599446
rclavicle 4.578709999526746E-16 5.472069961776572E-16
rhumerus 17.377938367017833 28.17569036496265 -72.06644521161392
rradius 106.96389888184372
rwrist -22.114584132582443
rhand -40.886687040683555 -23.956911508674086
rfingers 7.1250199999999495
rthumb -13.783216668932658 -53.39194834967899
lclavicle 1.0882148700535442E-15 -6.530570151102843E-16
lhumerus 14.391938114843509 7.537520164704691 54.54421560321582
lradius 54.63837495591481
lwrist 8.162318772632535
lhand -24.394343732526046 27.557699703136212
lfingers 7.114856494667466
lthumb 1.9185738418771905 56.65620635508234
rfemur -20.02620628106528 15.578053001105015 10.813981430127786
rtibia 35.90652819020593
rfoot -14.205189655030864 -8.334561634577152
rtoes -8.89240919117983
lfemur -13.427652281587118 -7.168297308903969 -11.65151875811212
ltibia 29.800513207800634
lfoot -7.630804200669744 7.912792681084457
ltoes -2.8227087008607863
